<?xml version="1.0" encoding="utf-8"?>
<!-- Generator: Adobe Illustrator 22.1.0, SVG Export Plug-In . SVG Version: 6.00 Build 0)  -->
<svg version="1.1" id="Layer_1" xmlns="http://www.w3.org/2000/svg" xmlns:xlink="http://www.w3.org/1999/xlink" x="0px" y="0px"
	 viewBox="0 0 231.3 63.2" style="enable-background:new 0 0 231.3 63.2;" xml:space="preserve">
<style type="text/css">
	.st0{fill:#0081FF;}
	.st1{fill:#7033A0;}
	.st2{fill:url(#SVGID_1_);}
	.st3{fill:url(#SVGID_2_);}
	.st4{fill:url(#SVGID_3_);}
	.st5{fill:url(#SVGID_4_);}
	.st6{fill:url(#SVGID_5_);}
	.st7{enable-background:new    ;}
	.st8{fill:#FFFFFF;}
	.st9{fill:#87909D;}
</style>
<g>
	<path class="st0" d="M52.3,46.2v3.5c0,1-0.8,1.8-1.8,1.8H2c-1,0-1.9-0.8-1.9-1.9V2C0.1,0.9,1,0.1,2,0.1h15.2c-9,0.3-9.9,7.5-10,8.8
		c0,0.1,0,0.2,0,0.2v33.5c0,0.1,0,0.1,0,0.2c0,0.1,0.1,0.2,0.1,0.3s0,0.1,0.1,0.1l0,0c0,0.1,0,0.1,0.1,0.1c0,0.1,0.1,0.1,0.1,0.1
		c0.1,0.1,0.1,0.3,0.3,0.3c0,0.1,0.1,0.1,0.1,0.1c0.2,0.2,0.4,0.4,0.8,0.4c0.1,0,0.1,0,0.1,0.1c0.1,0,0.1,0,0.2,0s0.1,0,0.2,0h41.4
		C51.5,44.4,52.3,45.2,52.3,46.2z"/>
	<path class="st1" d="M64,34.5v26.8c0,1-0.8,1.9-1.9,1.9H2c-1,0-1.9-0.8-1.9-1.9v-3.4c0-1,0.8-1.9,1.9-1.9h53.1c1,0,1.9-0.8,1.9-1.9
		V41.6c0-1-0.8-1.9-1.9-1.9H13.7c-1,0-1.9-0.8-1.9-1.9V13.6c0-1,0.8-1.9,1.9-1.9h47.4c1,0,1.9,0.8,1.9,1.9V17c0,1-0.8,1.9-1.9,1.9
		H20.8c-0.8,0-1.5,0.4-1.7,1.2l0,0C19,20.3,19,20.5,19,20.8v9.9v0.1c0,0.1,0,0.1,0,0.1l0,0c0.1,0.3,0.1,0.4,0.2,0.6
		c0.3,0.6,1,1,1.7,1h41.3C63.2,32.7,64,33.5,64,34.5z"/>
	<linearGradient id="SVGID_1_" gradientUnits="userSpaceOnUse" x1="4.932" y1="4.4" x2="37.8653" y2="4.4">
		<stop  offset="0" style="stop-color:#004F84"/>
		<stop  offset="1" style="stop-color:#0081FF"/>
	</linearGradient>
	<path class="st2" d="M62.9,2v3.2c0,1.1-0.9,1.9-1.9,1.9H9c-1,0-1.7,0.7-1.9,1.7c0.1-1.3,1-8.5,10.1-8.8h43.7C62,0.1,62.9,1,62.9,2z
		"/>
	<linearGradient id="SVGID_2_" gradientUnits="userSpaceOnUse" x1="5.4615" y1="47.35" x2="32.0575" y2="47.35">
		<stop  offset="0" style="stop-color:#004F84"/>
		<stop  offset="1" style="stop-color:#0081FF"/>
	</linearGradient>
	<path class="st3" d="M52.3,46.2v3.5c0,1-0.8,1.8-1.8,1.8H16.7c-7.1,0-9-6.3-9.4-8.3c0,0.1,0,0.1,0.1,0.1c0,0.1,0.1,0.1,0.1,0.1
		c0.1,0.1,0.1,0.3,0.3,0.3c0,0.1,0.1,0.1,0.1,0.1c0.2,0.2,0.4,0.4,0.8,0.4c0.1,0,0.1,0,0.1,0.1c0.1,0,0.1,0,0.2,0c0.1,0,0.1,0,0.2,0
		h41.4C51.5,44.4,52.3,45.2,52.3,46.2z"/>
	<linearGradient id="SVGID_3_" gradientUnits="userSpaceOnUse" x1="19.0523" y1="15.95" x2="62.9115" y2="15.95">
		<stop  offset="0" style="stop-color:#4C2466"/>
		<stop  offset="1" style="stop-color:#7033A0"/>
	</linearGradient>
	<path class="st4" d="M62.9,13.6V17c0,1-0.8,1.9-1.9,1.9H20.8c-0.8,0-1.5,0.4-1.7,1.2c0.5-2.1,2.7-8.3,10.8-8.3h31.2
		C62.1,11.8,62.9,12.6,62.9,13.6z"/>
	<linearGradient id="SVGID_4_" gradientUnits="userSpaceOnUse" x1="18.9" y1="35.45" x2="64" y2="35.45">
		<stop  offset="0" style="stop-color:#4C2466"/>
		<stop  offset="1" style="stop-color:#7033A0"/>
	</linearGradient>
	<path class="st5" d="M64,34.5v5.3H28.2c-7.9,0-9.1-7.2-9.3-8.7c0.1,0.3,0.1,0.4,0.2,0.6c0.3,0.6,1,1,1.7,1h41.3
		C63.2,32.7,64,33.5,64,34.5z"/>
	<linearGradient id="SVGID_5_" gradientUnits="userSpaceOnUse" x1="55.9754" y1="58.65" x2="0.2687" y2="58.65">
		<stop  offset="0" style="stop-color:#4C2466"/>
		<stop  offset="1" style="stop-color:#7033A0"/>
	</linearGradient>
	<path class="st6" d="M49.9,63.2H2c-1,0-1.9-0.8-1.9-1.9v-3.4c0-1,0.8-1.9,1.9-1.9h53.1c1,0,1.9-0.8,1.9-1.9
		C57,54.2,57.2,63.2,49.9,63.2z"/>
</g>
<g>
	<g class="st7">
		<path class="st8" d="M91.5,14.9h-3.6c-0.1-0.5-0.2-0.9-0.4-1.2c-0.2-0.4-0.5-0.7-0.8-0.9s-0.7-0.5-1.1-0.6
			c-0.4-0.1-0.9-0.2-1.3-0.2c-0.9,0-1.6,0.2-2.3,0.6s-1.1,1-1.5,1.9c-0.4,0.8-0.5,1.8-0.5,3c0,1.2,0.2,2.2,0.5,3
			c0.4,0.8,0.9,1.4,1.5,1.8c0.6,0.4,1.4,0.6,2.2,0.6c0.5,0,0.9-0.1,1.3-0.2c0.4-0.1,0.8-0.3,1.1-0.6s0.6-0.5,0.8-0.9
			c0.2-0.3,0.4-0.7,0.4-1.2l3.6,0c-0.1,0.8-0.3,1.5-0.7,2.2s-0.9,1.3-1.5,1.9c-0.6,0.6-1.4,1-2.2,1.3c-0.9,0.3-1.8,0.5-2.9,0.5
			c-1.5,0-2.8-0.3-4-1c-1.2-0.7-2.1-1.7-2.8-2.9c-0.7-1.3-1-2.8-1-4.6c0-1.8,0.3-3.4,1-4.7c0.7-1.3,1.6-2.3,2.8-2.9
			c1.2-0.7,2.5-1,4-1c1,0,1.9,0.1,2.7,0.4c0.8,0.3,1.6,0.7,2.2,1.2c0.6,0.5,1.2,1.2,1.6,1.9C91.1,13,91.3,13.9,91.5,14.9z"/>
		<path class="st8" d="M97.5,26c-0.8,0-1.5-0.1-2.1-0.4c-0.6-0.3-1.1-0.7-1.5-1.3c-0.4-0.6-0.5-1.2-0.5-2.1c0-0.7,0.1-1.3,0.4-1.8
			s0.6-0.9,1-1.1c0.4-0.3,0.9-0.5,1.5-0.7c0.6-0.1,1.2-0.3,1.8-0.3c0.7-0.1,1.3-0.1,1.8-0.2c0.4-0.1,0.8-0.2,1-0.3
			c0.2-0.1,0.3-0.3,0.3-0.6v0c0-0.5-0.2-0.9-0.5-1.2c-0.3-0.3-0.8-0.4-1.4-0.4c-0.6,0-1.1,0.1-1.5,0.4c-0.4,0.3-0.6,0.6-0.7,1
			l-3.2-0.3c0.2-0.8,0.5-1.4,1-2c0.5-0.6,1.1-1,1.9-1.3c0.8-0.3,1.6-0.5,2.6-0.5c0.7,0,1.4,0.1,2,0.2c0.6,0.2,1.2,0.4,1.7,0.8
			c0.5,0.3,0.9,0.8,1.2,1.3s0.4,1.2,0.4,1.9v8.5h-3.3V24h-0.1c-0.2,0.4-0.5,0.7-0.8,1c-0.3,0.3-0.7,0.5-1.2,0.7
			C98.7,25.9,98.1,26,97.5,26z M98.5,23.6c0.5,0,1-0.1,1.4-0.3s0.7-0.5,0.9-0.8c0.2-0.3,0.3-0.7,0.3-1.2v-1.3
			c-0.1,0.1-0.3,0.1-0.4,0.2c-0.2,0.1-0.4,0.1-0.6,0.2c-0.2,0-0.5,0.1-0.7,0.1c-0.2,0-0.4,0.1-0.6,0.1c-0.4,0.1-0.8,0.2-1.1,0.3
			c-0.3,0.1-0.5,0.3-0.7,0.5c-0.2,0.2-0.3,0.5-0.3,0.8c0,0.5,0.2,0.8,0.5,1.1S98,23.6,98.5,23.6z"/>
		<path class="st8" d="M107.3,25.7V13.2h3.4v2.2h0.1c0.2-0.8,0.6-1.4,1.2-1.8s1.2-0.6,1.9-0.6c0.2,0,0.4,0,0.6,0s0.4,0.1,0.5,0.1
			v3.1c-0.2,0-0.4-0.1-0.7-0.1s-0.6-0.1-0.8-0.1c-0.5,0-1,0.1-1.4,0.3c-0.4,0.2-0.7,0.5-0.9,0.9c-0.2,0.4-0.3,0.8-0.3,1.4v7.1H107.3
			z"/>
		<path class="st8" d="M120.2,9v16.7h-3.5V9H120.2z"/>
		<path class="st8" d="M128.6,26c-1.3,0-2.4-0.3-3.3-0.8c-0.9-0.5-1.6-1.3-2.1-2.3c-0.5-1-0.8-2.1-0.8-3.4c0-1.3,0.3-2.4,0.8-3.4
			c0.5-1,1.2-1.7,2.1-2.3c0.9-0.5,2-0.8,3.3-0.8c1.3,0,2.4,0.3,3.3,0.8c0.9,0.5,1.6,1.3,2.1,2.3c0.5,1,0.8,2.1,0.8,3.4
			c0,1.3-0.3,2.4-0.8,3.4c-0.5,1-1.2,1.7-2.1,2.3C131,25.7,129.9,26,128.6,26z M128.6,23.3c0.6,0,1.1-0.2,1.4-0.5s0.7-0.8,0.9-1.4
			c0.2-0.6,0.3-1.2,0.3-2s-0.1-1.4-0.3-2c-0.2-0.6-0.5-1-0.9-1.4s-0.9-0.5-1.4-0.5c-0.6,0-1.1,0.2-1.5,0.5s-0.7,0.8-0.9,1.4
			c-0.2,0.6-0.3,1.2-0.3,2s0.1,1.4,0.3,2c0.2,0.6,0.5,1,0.9,1.4S128,23.3,128.6,23.3z"/>
		<path class="st8" d="M151.5,13.8c-0.1-0.7-0.3-1.2-0.8-1.5c-0.5-0.4-1.2-0.5-2-0.5c-0.6,0-1.1,0.1-1.5,0.2
			c-0.4,0.2-0.7,0.4-0.9,0.7c-0.2,0.3-0.3,0.6-0.3,1c0,0.3,0.1,0.6,0.2,0.8c0.1,0.2,0.3,0.4,0.6,0.6c0.2,0.2,0.5,0.3,0.8,0.4
			s0.7,0.2,1,0.3l1.5,0.4c0.7,0.2,1.4,0.4,2,0.7c0.6,0.3,1.1,0.6,1.6,1c0.4,0.4,0.8,0.9,1,1.4s0.4,1.2,0.4,1.9c0,1-0.3,1.9-0.8,2.7
			c-0.5,0.7-1.3,1.3-2.2,1.7S150,26,148.7,26c-1.4,0-2.5-0.2-3.5-0.6s-1.8-1-2.3-1.8c-0.6-0.8-0.9-1.8-0.9-3h3.4
			c0,0.6,0.2,1,0.5,1.4c0.3,0.4,0.7,0.7,1.2,0.8s1,0.3,1.6,0.3c0.6,0,1.1-0.1,1.6-0.3c0.4-0.2,0.8-0.4,1-0.7
			c0.2-0.3,0.4-0.7,0.4-1.1c0-0.4-0.1-0.7-0.3-0.9s-0.5-0.5-1-0.7s-0.9-0.3-1.5-0.5l-1.8-0.5c-1.4-0.3-2.5-0.9-3.3-1.6
			c-0.8-0.7-1.2-1.7-1.2-2.9c0-1,0.3-1.9,0.8-2.7c0.5-0.8,1.3-1.3,2.3-1.8c1-0.4,2-0.6,3.3-0.6c1.2,0,2.3,0.2,3.3,0.6
			c0.9,0.4,1.7,1,2.2,1.8s0.8,1.6,0.8,2.6H151.5z"/>
		<path class="st8" d="M163.2,26c-1.3,0-2.4-0.3-3.3-0.8s-1.6-1.3-2.1-2.2c-0.5-1-0.8-2.1-0.8-3.4c0-1.3,0.3-2.4,0.8-3.4
			s1.2-1.7,2.1-2.3c0.9-0.5,2-0.8,3.2-0.8c0.8,0,1.6,0.1,2.3,0.4c0.7,0.3,1.3,0.7,1.9,1.2s1,1.2,1.3,2c0.3,0.8,0.4,1.7,0.4,2.8v1
			h-10.6v-2.2h7.3c0-0.5-0.1-0.9-0.3-1.3s-0.5-0.7-0.9-0.9c-0.4-0.2-0.8-0.3-1.3-0.3c-0.5,0-1,0.1-1.4,0.4c-0.4,0.2-0.7,0.6-1,1
			c-0.2,0.4-0.3,0.9-0.4,1.4v2.1c0,0.6,0.1,1.2,0.3,1.6c0.2,0.5,0.6,0.8,1,1s0.9,0.4,1.5,0.4c0.4,0,0.7-0.1,1.1-0.2
			c0.3-0.1,0.6-0.3,0.8-0.5s0.4-0.5,0.5-0.8l3.2,0.2c-0.2,0.8-0.5,1.4-1,2s-1.2,1-1.9,1.3C165.1,25.8,164.2,26,163.2,26z"/>
		<path class="st8" d="M176.8,30.7c-1.1,0-2.1-0.2-2.9-0.5c-0.8-0.3-1.4-0.7-1.9-1.3c-0.5-0.5-0.8-1.1-0.9-1.8l3.2-0.4
			c0.1,0.3,0.3,0.5,0.5,0.7c0.2,0.2,0.5,0.4,0.8,0.5c0.4,0.1,0.8,0.2,1.3,0.2c0.8,0,1.4-0.2,1.9-0.6c0.5-0.4,0.7-1,0.7-1.8v-2.3
			h-0.1c-0.2,0.3-0.4,0.7-0.7,1c-0.3,0.3-0.7,0.6-1.2,0.8s-1.1,0.3-1.7,0.3c-0.9,0-1.8-0.2-2.6-0.7s-1.4-1.1-1.8-2
			c-0.5-0.9-0.7-2.1-0.7-3.4c0-1.4,0.2-2.6,0.7-3.6s1.1-1.7,1.8-2.1s1.6-0.7,2.5-0.7c0.7,0,1.3,0.1,1.8,0.4s0.9,0.5,1.1,0.9
			c0.3,0.4,0.5,0.7,0.7,1h0.1v-2.1h3.5v12.7c0,1.1-0.3,2-0.8,2.7c-0.5,0.7-1.2,1.3-2.2,1.6S178,30.7,176.8,30.7z M176.9,22.9
			c0.6,0,1-0.1,1.4-0.4s0.7-0.7,0.9-1.2s0.3-1.2,0.3-1.9s-0.1-1.4-0.3-1.9s-0.5-1-0.9-1.3c-0.4-0.3-0.9-0.4-1.4-0.4
			c-0.6,0-1.1,0.2-1.4,0.5c-0.4,0.3-0.7,0.7-0.9,1.3c-0.2,0.5-0.3,1.2-0.3,1.9c0,0.7,0.1,1.3,0.3,1.9c0.2,0.5,0.5,0.9,0.9,1.2
			C175.9,22.8,176.3,22.9,176.9,22.9z"/>
		<path class="st8" d="M191.4,26c-1.3,0-2.4-0.3-3.3-0.8s-1.6-1.3-2.1-2.3c-0.5-1-0.8-2.1-0.8-3.4c0-1.3,0.3-2.4,0.8-3.4
			c0.5-1,1.2-1.7,2.1-2.3c0.9-0.5,2-0.8,3.3-0.8s2.4,0.3,3.3,0.8c0.9,0.5,1.6,1.3,2.1,2.3c0.5,1,0.8,2.1,0.8,3.4
			c0,1.3-0.3,2.4-0.8,3.4c-0.5,1-1.2,1.7-2.1,2.3C193.8,25.7,192.7,26,191.4,26z M191.4,23.3c0.6,0,1.1-0.2,1.4-0.5s0.7-0.8,0.9-1.4
			c0.2-0.6,0.3-1.2,0.3-2s-0.1-1.4-0.3-2c-0.2-0.6-0.5-1-0.9-1.4s-0.9-0.5-1.4-0.5c-0.6,0-1.1,0.2-1.5,0.5c-0.4,0.3-0.7,0.8-0.9,1.4
			c-0.2,0.6-0.3,1.2-0.3,2s0.1,1.4,0.3,2c0.2,0.6,0.5,1,0.9,1.4C190.4,23.1,190.9,23.3,191.4,23.3z"/>
		<path class="st8" d="M211.1,13.2l-4.4,12.5h-3.9l-4.4-12.5h3.7l2.6,9h0.1l2.6-9H211.1z"/>
		<path class="st8" d="M214.7,11.6c-0.5,0-1-0.2-1.3-0.5c-0.4-0.3-0.6-0.8-0.6-1.2c0-0.5,0.2-0.9,0.6-1.2c0.4-0.3,0.8-0.5,1.3-0.5
			c0.5,0,1,0.2,1.3,0.5c0.4,0.3,0.6,0.8,0.6,1.2c0,0.5-0.2,0.9-0.6,1.2C215.6,11.4,215.2,11.6,214.7,11.6z M212.9,25.7V13.2h3.5
			v12.5H212.9z"/>
		<path class="st8" d="M222.8,26c-0.8,0-1.5-0.1-2.1-0.4s-1.1-0.7-1.5-1.3s-0.5-1.2-0.5-2.1c0-0.7,0.1-1.3,0.4-1.8s0.6-0.9,1-1.1
			c0.4-0.3,0.9-0.5,1.5-0.7c0.6-0.1,1.2-0.3,1.8-0.3c0.7-0.1,1.3-0.1,1.8-0.2c0.4-0.1,0.8-0.2,1-0.3c0.2-0.1,0.3-0.3,0.3-0.6v0
			c0-0.5-0.2-0.9-0.5-1.2s-0.8-0.4-1.4-0.4c-0.6,0-1.1,0.1-1.5,0.4c-0.4,0.3-0.6,0.6-0.7,1l-3.2-0.3c0.2-0.8,0.5-1.4,1-2
			c0.5-0.6,1.1-1,1.9-1.3c0.8-0.3,1.6-0.5,2.6-0.5c0.7,0,1.4,0.1,2,0.2s1.2,0.4,1.7,0.8s0.9,0.8,1.2,1.3c0.3,0.5,0.4,1.2,0.4,1.9
			v8.5h-3.3V24h-0.1c-0.2,0.4-0.5,0.7-0.8,1c-0.3,0.3-0.7,0.5-1.2,0.7S223.4,26,222.8,26z M223.8,23.6c0.5,0,1-0.1,1.4-0.3
			c0.4-0.2,0.7-0.5,0.9-0.8c0.2-0.3,0.3-0.7,0.3-1.2v-1.3c-0.1,0.1-0.3,0.1-0.4,0.2c-0.2,0.1-0.4,0.1-0.6,0.2
			c-0.2,0-0.5,0.1-0.7,0.1c-0.2,0-0.4,0.1-0.6,0.1c-0.4,0.1-0.8,0.2-1.1,0.3c-0.3,0.1-0.5,0.3-0.7,0.5c-0.2,0.2-0.3,0.5-0.3,0.8
			c0,0.5,0.2,0.8,0.5,1.1S223.2,23.6,223.8,23.6z"/>
	</g>
	<g class="st7">
		<path class="st9" d="M79.1,51.4l-3.5-12.4H78l2.2,9.1h0.1l2.4-9.1h2.2l2.4,9.1h0.1l2.2-9.1H92l-3.5,12.4h-2.2l-2.5-8.7h-0.1
			l-2.5,8.7H79.1z"/>
		<path class="st9" d="M96.6,51.6c-0.9,0-1.7-0.2-2.4-0.6c-0.7-0.4-1.2-0.9-1.6-1.7c-0.4-0.7-0.5-1.6-0.5-2.5c0-1,0.2-1.8,0.5-2.5
			c0.4-0.7,0.9-1.3,1.5-1.7c0.7-0.4,1.4-0.6,2.3-0.6c0.6,0,1.1,0.1,1.6,0.3c0.5,0.2,1,0.5,1.4,0.8c0.4,0.4,0.7,0.9,0.9,1.5
			c0.2,0.6,0.3,1.3,0.3,2.1v0.7h-7.6v-1.5h5.5c0-0.4-0.1-0.8-0.3-1.1c-0.2-0.3-0.4-0.6-0.7-0.8s-0.7-0.3-1.1-0.3
			c-0.4,0-0.8,0.1-1.2,0.3c-0.3,0.2-0.6,0.5-0.8,0.8c-0.2,0.3-0.3,0.7-0.3,1.1v1.3c0,0.5,0.1,1,0.3,1.4c0.2,0.4,0.5,0.7,0.8,0.9
			c0.4,0.2,0.8,0.3,1.2,0.3c0.3,0,0.6,0,0.9-0.1c0.3-0.1,0.5-0.2,0.7-0.4s0.3-0.4,0.4-0.7l2,0.2c-0.1,0.5-0.4,1-0.7,1.4
			c-0.4,0.4-0.8,0.7-1.4,0.9C98,51.5,97.4,51.6,96.6,51.6z"/>
		<path class="st9" d="M102.7,51.4V39.1h2.2v4.6h0.1c0.1-0.2,0.3-0.5,0.5-0.7c0.2-0.3,0.5-0.5,0.8-0.7c0.4-0.2,0.8-0.3,1.3-0.3
			c0.7,0,1.4,0.2,1.9,0.5s1,0.9,1.4,1.6c0.3,0.7,0.5,1.6,0.5,2.6c0,1-0.2,1.9-0.5,2.6c-0.3,0.7-0.8,1.3-1.4,1.6
			c-0.6,0.4-1.2,0.6-2,0.6c-0.5,0-1-0.1-1.3-0.3s-0.6-0.4-0.8-0.6c-0.2-0.3-0.4-0.5-0.5-0.7h-0.1v1.5H102.7z M104.8,46.8
			c0,0.6,0.1,1.1,0.3,1.6c0.2,0.5,0.4,0.8,0.7,1.1c0.3,0.3,0.7,0.4,1.2,0.4c0.5,0,0.9-0.1,1.2-0.4s0.6-0.6,0.7-1.1s0.3-1,0.3-1.5
			c0-0.6-0.1-1.1-0.2-1.5c-0.2-0.4-0.4-0.8-0.7-1c-0.3-0.3-0.7-0.4-1.2-0.4c-0.5,0-0.9,0.1-1.2,0.4c-0.3,0.2-0.6,0.6-0.7,1
			C104.9,45.7,104.8,46.2,104.8,46.8z"/>
		<path class="st9" d="M121.8,51.4h-4.2V39.1h4.3c1.2,0,2.3,0.2,3.2,0.7s1.6,1.2,2,2.1s0.7,2,0.7,3.3c0,1.3-0.2,2.4-0.7,3.3
			c-0.5,0.9-1.2,1.6-2.1,2.1C124.2,51.2,123.1,51.4,121.8,51.4z M119.9,49.5h1.8c0.9,0,1.6-0.2,2.2-0.5c0.6-0.3,1-0.8,1.3-1.4
			s0.4-1.4,0.4-2.4c0-0.9-0.1-1.7-0.4-2.4c-0.3-0.6-0.7-1.1-1.3-1.4c-0.6-0.3-1.3-0.5-2.1-0.5h-1.9V49.5z"/>
		<path class="st9" d="M134,51.6c-0.9,0-1.7-0.2-2.4-0.6s-1.2-0.9-1.6-1.7c-0.4-0.7-0.5-1.6-0.5-2.5c0-1,0.2-1.8,0.5-2.5
			c0.4-0.7,0.9-1.3,1.5-1.7c0.7-0.4,1.4-0.6,2.3-0.6c0.6,0,1.1,0.1,1.6,0.3c0.5,0.2,1,0.5,1.4,0.8c0.4,0.4,0.7,0.9,0.9,1.5
			c0.2,0.6,0.3,1.3,0.3,2.1v0.7h-7.6v-1.5h5.5c0-0.4-0.1-0.8-0.3-1.1c-0.2-0.3-0.4-0.6-0.7-0.8c-0.3-0.2-0.7-0.3-1.1-0.3
			c-0.4,0-0.8,0.1-1.2,0.3c-0.3,0.2-0.6,0.5-0.8,0.8c-0.2,0.3-0.3,0.7-0.3,1.1v1.3c0,0.5,0.1,1,0.3,1.4c0.2,0.4,0.5,0.7,0.8,0.9
			s0.8,0.3,1.2,0.3c0.3,0,0.6,0,0.9-0.1c0.3-0.1,0.5-0.2,0.7-0.4c0.2-0.2,0.3-0.4,0.4-0.7l2,0.2c-0.1,0.5-0.4,1-0.7,1.4
			s-0.8,0.7-1.4,0.9C135.3,51.5,134.7,51.6,134,51.6z"/>
		<path class="st9" d="M147.3,44.6l-2,0.2c-0.1-0.2-0.2-0.4-0.3-0.6s-0.3-0.3-0.6-0.4s-0.5-0.2-0.9-0.2c-0.5,0-0.8,0.1-1.1,0.3
			c-0.3,0.2-0.5,0.5-0.5,0.8c0,0.3,0.1,0.5,0.3,0.7s0.5,0.3,1,0.4l1.6,0.3c0.9,0.2,1.5,0.5,2,0.9c0.4,0.4,0.6,0.9,0.6,1.6
			c0,0.6-0.2,1.1-0.5,1.5c-0.3,0.4-0.8,0.8-1.4,1c-0.6,0.3-1.3,0.4-2.1,0.4c-1.1,0-2-0.2-2.7-0.7s-1.1-1.1-1.2-2l2.1-0.2
			c0.1,0.4,0.3,0.7,0.6,0.9c0.3,0.2,0.7,0.3,1.2,0.3c0.5,0,0.9-0.1,1.3-0.3c0.3-0.2,0.5-0.5,0.5-0.8c0-0.3-0.1-0.5-0.3-0.7
			c-0.2-0.2-0.5-0.3-0.9-0.4l-1.6-0.3c-0.9-0.2-1.5-0.5-2-0.9c-0.4-0.4-0.6-1-0.6-1.7c0-0.6,0.2-1.1,0.5-1.5c0.3-0.4,0.8-0.7,1.3-1
			s1.2-0.3,2-0.3c1.1,0,1.9,0.2,2.6,0.7C146.7,43.2,147.1,43.8,147.3,44.6z"/>
		<path class="st9" d="M150.4,40.8c-0.3,0-0.6-0.1-0.9-0.3c-0.3-0.2-0.4-0.5-0.4-0.8c0-0.3,0.1-0.6,0.4-0.8c0.2-0.2,0.5-0.3,0.9-0.3
			c0.3,0,0.6,0.1,0.9,0.3c0.2,0.2,0.4,0.5,0.4,0.8c0,0.3-0.1,0.6-0.4,0.8C151,40.7,150.7,40.8,150.4,40.8z M149.3,51.4v-9.3h2.2v9.3
			H149.3z"/>
		<path class="st9" d="M157.7,55.1c-0.8,0-1.5-0.1-2-0.3s-1-0.5-1.4-0.8c-0.3-0.4-0.6-0.7-0.7-1.2l2-0.5c0.1,0.2,0.2,0.4,0.4,0.5
			c0.2,0.2,0.4,0.3,0.7,0.4c0.3,0.1,0.7,0.2,1.1,0.2c0.6,0,1.1-0.2,1.5-0.5c0.4-0.3,0.6-0.8,0.6-1.5v-1.8h-0.1
			c-0.1,0.2-0.3,0.5-0.5,0.7c-0.2,0.2-0.5,0.4-0.9,0.6c-0.4,0.2-0.8,0.2-1.3,0.2c-0.7,0-1.4-0.2-1.9-0.5c-0.6-0.3-1-0.8-1.4-1.5
			c-0.3-0.7-0.5-1.5-0.5-2.5c0-1,0.2-1.9,0.5-2.6c0.3-0.7,0.8-1.2,1.4-1.6c0.6-0.4,1.2-0.5,1.9-0.5c0.5,0,1,0.1,1.3,0.3
			c0.4,0.2,0.6,0.4,0.8,0.7c0.2,0.3,0.4,0.5,0.5,0.7h0.1v-1.5h2.2v9.4c0,0.8-0.2,1.4-0.6,2c-0.4,0.5-0.9,0.9-1.6,1.2
			C159.3,55,158.6,55.1,157.7,55.1z M157.7,49.6c0.5,0,0.9-0.1,1.2-0.3c0.3-0.2,0.6-0.5,0.7-1s0.3-0.9,0.3-1.5
			c0-0.6-0.1-1.1-0.3-1.5s-0.4-0.8-0.7-1c-0.3-0.2-0.7-0.4-1.2-0.4c-0.5,0-0.9,0.1-1.2,0.4c-0.3,0.3-0.6,0.6-0.7,1s-0.2,0.9-0.2,1.5
			c0,0.6,0.1,1.1,0.3,1.5s0.4,0.8,0.7,1S157.3,49.6,157.7,49.6z"/>
		<path class="st9" d="M166.5,46v5.4h-2.2v-9.3h2.1v1.6h0.1c0.2-0.5,0.6-0.9,1-1.2s1-0.5,1.7-0.5c0.6,0,1.2,0.1,1.7,0.4
			c0.5,0.3,0.8,0.7,1.1,1.2c0.3,0.5,0.4,1.1,0.4,1.9v5.9h-2.2v-5.6c0-0.6-0.2-1.1-0.5-1.5c-0.3-0.4-0.8-0.5-1.3-0.5
			c-0.4,0-0.7,0.1-1,0.3s-0.5,0.4-0.7,0.7S166.5,45.5,166.5,46z"/>
		<path class="st9" d="M178.8,51.6c-0.9,0-1.7-0.2-2.4-0.6s-1.2-0.9-1.6-1.7c-0.4-0.7-0.5-1.6-0.5-2.5c0-1,0.2-1.8,0.5-2.5
			c0.4-0.7,0.9-1.3,1.5-1.7c0.7-0.4,1.4-0.6,2.3-0.6c0.6,0,1.1,0.1,1.6,0.3c0.5,0.2,1,0.5,1.4,0.8c0.4,0.4,0.7,0.9,0.9,1.5
			c0.2,0.6,0.3,1.3,0.3,2.1v0.7h-7.6v-1.5h5.5c0-0.4-0.1-0.8-0.3-1.1c-0.2-0.3-0.4-0.6-0.7-0.8c-0.3-0.2-0.7-0.3-1.1-0.3
			c-0.4,0-0.8,0.1-1.2,0.3c-0.3,0.2-0.6,0.5-0.8,0.8c-0.2,0.3-0.3,0.7-0.3,1.1v1.3c0,0.5,0.1,1,0.3,1.4c0.2,0.4,0.5,0.7,0.8,0.9
			s0.8,0.3,1.2,0.3c0.3,0,0.6,0,0.9-0.1c0.3-0.1,0.5-0.2,0.7-0.4c0.2-0.2,0.3-0.4,0.4-0.7l2,0.2c-0.1,0.5-0.4,1-0.7,1.4
			s-0.8,0.7-1.4,0.9C180.2,51.5,179.5,51.6,178.8,51.6z"/>
		<path class="st9" d="M184.8,51.4v-9.3h2.1v1.5h0.1c0.2-0.5,0.5-0.9,0.9-1.2c0.4-0.3,0.9-0.4,1.4-0.4c0.1,0,0.3,0,0.4,0
			c0.2,0,0.3,0,0.4,0v2c-0.1,0-0.2-0.1-0.4-0.1c-0.2,0-0.4,0-0.6,0c-0.4,0-0.8,0.1-1.1,0.3c-0.3,0.2-0.6,0.4-0.7,0.7
			c-0.2,0.3-0.3,0.7-0.3,1v5.5H184.8z"/>
	</g>
</g>
</svg>
